<svg xmlns="http://www.w3.org/2000/svg" viewBox="0 0 512 512">
  <defs>
    <linearGradient id="metal" x1="0" y1="0" x2="1" y2="1"><stop offset="0" stop-color="#e2e2e2"/><stop offset="0.35" stop-color="#9a9a9a"/><stop offset="0.72" stop-color="#555"/><stop offset="1" stop-color="#242424"/></linearGradient>
    <linearGradient id="green" x1="0" y1="0" x2="1" y2="0"><stop offset="0" stop-color="#147d19"/><stop offset="0.55" stop-color="#53a600"/><stop offset="1" stop-color="#b6d800"/></linearGradient>
    <linearGradient id="orange" x1="0" y1="0" x2="1" y2="0"><stop offset="0" stop-color="#e74a00"/><stop offset="0.55" stop-color="#ff7900"/><stop offset="1" stop-color="#ffc400"/></linearGradient>
    <linearGradient id="blue" x1="0" y1="0" x2="0" y2="1"><stop offset="0" stop-color="#61d5ff"/><stop offset="1" stop-color="#008ccc"/></linearGradient>
  </defs>
  <rect width="512" height="512" fill="#0668a9"/>
  <circle cx="256" cy="256" r="190" fill="#fff"/>
  <g transform="translate(92 95) scale(1.02)">
    <path d="M250 52 A112 112 0 1 0 254 205" fill="none" stroke="url(#metal)" stroke-width="34" stroke-linecap="round"/>
    <path d="M88 129 C118 157 151 153 184 124 C218 94 250 91 278 108 C247 105 224 115 197 139 C160 171 120 172 88 148 Z" fill="url(#green)"/>
    <path d="M108 162 C137 184 169 184 202 155 C231 130 260 127 291 145 C263 142 240 151 215 173 C177 205 139 202 108 181 Z" fill="url(#orange)"/>
    <path d="M104 76 C104 76 132 106 132 125 C132 143 119 156 103 156 C86 156 74 143 74 126 C74 106 104 76 104 76 Z" fill="url(#blue)"/>
    <path d="M89 119 C87 131 92 140 102 144" fill="none" stroke="#fff" stroke-width="7" stroke-linecap="round" opacity="0.9"/>
  </g>
</svg>
